# xmcd
#
# Track frame offsets:
#	150
#	43586
#	71106
#	107658
#	140737
#	175146
#	204416
#	238005
#	276470
#	311380
#
# Disc length: 4538 seconds
#
# Revision: 0
# Processed by: cddbd v1.5.1PL2 Copyright (c) Steve Scherf et al.
# Submitted via: EasyCDDAExtractor 9.1.3.1
#
DISCID=9511b80a
DTITLE=Various Artist - Dream Dance Vol.4 (100% Hits)
DYEAR=2003
DGENRE=Trance
TTITLE0=Saltwater - THE LEGACY (ALPHAZONE MIX)
TTITLE1=Chakra - DOORS (SPACE BROTHERS DUB)
TTITLE2=Accadia - BLIND VISIONS (YAHEL REMIX)
TTITLE3=Sureno - LOVE IS AN OCEAN (ORIGINAL REMIX)
TTITLE4=Airwave vs. Rising Star - SUNSPOT (ORIGINAL MIX)
TTITLE5=Kirsty Hawkshaw - FINE DAY (MIKE KOGLIN 12'' MIX)
TTITLE6=Fractals - LIFELAB - EXPERIMENT 1
TTITLE7=Dark Suite feat. Aura - DARK SWEET PIANO (FRANK TRAX VS ORGAN REMIX)
TTITLE8=Exit EEE - EPIDEMIC (K90 REMIX)
TTITLE9=Rainy Daze - I LIKE CHOPIN (TOM MOUNTAIN VS. OUTATIME REMIX)
EXTD=
EXTT0=
EXTT1=
EXTT2=
EXTT3=
EXTT4=
EXTT5=
EXTT6=
EXTT7=
EXTT8=
EXTT9=
PLAYORDER=
